<svg width="148" height="44" viewBox="0 0 148 44" fill="none" xmlns="http://www.w3.org/2000/svg">
<path d="M1.90735e-06 0.416H8V42.656H1.90735e-06V0.416ZM32.7575 15.616C34.5495 15.616 36.2988 15.9893 38.0055 16.736C39.7122 17.4613 41.1095 18.624 42.1975 20.224C43.3068 21.824 43.8615 23.9147 43.8615 26.496V42.656H35.7015V27.904C35.7015 25.7493 35.1895 24.1493 34.1655 23.104C33.1628 22.0587 31.8402 21.536 30.1975 21.536C29.1308 21.536 28.1068 21.8347 27.1255 22.432C26.1655 23.008 25.3762 23.8187 24.7575 24.864C24.1602 25.888 23.8615 27.0613 23.8615 28.384V42.656H15.7335V16.384H23.8615V20.576C24.0962 19.8507 24.6295 19.104 25.4615 18.336C26.2935 17.568 27.3495 16.928 28.6295 16.416C29.9095 15.8827 31.2855 15.616 32.7575 15.616ZM49.345 16.384H74.177L60.065 36.864H73.281V42.656H47.361L61.473 22.144H49.345V16.384ZM78.6875 42.656V16.384H86.7835V42.656H78.6875ZM82.8475 9.6C81.5035 9.6 80.3622 9.13067 79.4235 8.192C78.5062 7.25333 78.0475 6.13333 78.0475 4.832C78.0475 3.53067 78.5168 2.4 79.4555 1.44C80.3942 0.48 81.5248 0 82.8475 0C83.7222 0 84.5222 0.224 85.2475 0.672001C85.9728 1.09867 86.5595 1.67467 87.0075 2.4C87.4555 3.12533 87.6795 3.936 87.6795 4.832C87.6795 6.13333 87.1995 7.25333 86.2395 8.192C85.3008 9.13067 84.1702 9.6 82.8475 9.6ZM102.433 7.488H91.841V0.416H120.993V7.488H110.433V42.656H102.433V7.488ZM127.35 31.328C127.414 32.5227 127.734 33.5893 128.31 34.528C128.886 35.4667 129.718 36.2027 130.806 36.736C131.915 37.2693 133.238 37.536 134.774 37.536C136.161 37.536 137.377 37.3653 138.422 37.024C139.489 36.6827 140.385 36.2667 141.11 35.776C141.857 35.264 142.411 34.7733 142.774 34.304L146.134 39.296C145.537 40.0427 144.737 40.736 143.734 41.376C142.753 41.9947 141.494 42.4853 139.958 42.848C138.443 43.232 136.545 43.424 134.262 43.424C131.382 43.424 128.854 42.8587 126.678 41.728C124.502 40.5973 122.806 38.9653 121.59 36.832C120.374 34.6987 119.766 32.16 119.766 29.216C119.766 26.656 120.31 24.352 121.398 22.304C122.486 20.2347 124.065 18.6027 126.134 17.408C128.225 16.2133 130.731 15.616 133.654 15.616C136.406 15.616 138.785 16.1493 140.79 17.216C142.817 18.2613 144.385 19.7973 145.494 21.824C146.603 23.8507 147.158 26.3253 147.158 29.248C147.158 29.4187 147.147 29.7707 147.126 30.304C147.126 30.816 147.105 31.1573 147.062 31.328H127.35ZM139.542 26.304C139.521 25.6213 139.307 24.8853 138.902 24.096C138.518 23.3067 137.91 22.6347 137.078 22.08C136.246 21.5253 135.137 21.248 133.75 21.248C132.363 21.248 131.222 21.5147 130.326 22.048C129.451 22.5813 128.79 23.2427 128.342 24.032C127.894 24.8 127.638 25.5573 127.574 26.304H139.542Z" fill="#df399a"/>
</svg>
