<svg width="148" height="44" viewBox="0 0 148 44" fill="none" xmlns="http://www.w3.org/2000/svg">
<path d="M0.640001 42.656V16.384H8.736V42.656H0.640001ZM4.8 9.6C3.456 9.6 2.31467 9.13067 1.376 8.192C0.458668 7.25333 1.19209e-06 6.13333 1.19209e-06 4.832C1.19209e-06 3.53067 0.469335 2.4 1.408 1.44C2.34667 0.48 3.47733 0 4.8 0C5.67467 0 6.47467 0.224 7.2 0.672001C7.92534 1.09867 8.512 1.67467 8.96 2.4C9.408 3.12533 9.632 3.936 9.632 4.832C9.632 6.13333 9.152 7.25333 8.192 8.192C7.25333 9.13067 6.12267 9.6 4.8 9.6ZM32.8975 15.616C34.6895 15.616 36.4388 15.9893 38.1455 16.736C39.8522 17.4613 41.2495 18.624 42.3375 20.224C43.4468 21.824 44.0015 23.9147 44.0015 26.496V42.656H35.8415V27.904C35.8415 25.7493 35.3295 24.1493 34.3055 23.104C33.3028 22.0587 31.9802 21.536 30.3375 21.536C29.2708 21.536 28.2468 21.8347 27.2655 22.432C26.3055 23.008 25.5162 23.8187 24.8975 24.864C24.3002 25.888 24.0015 27.0613 24.0015 28.384V42.656H15.8735V16.384H24.0015V20.576C24.2362 19.8507 24.7695 19.104 25.6015 18.336C26.4335 17.568 27.4895 16.928 28.7695 16.416C30.0495 15.8827 31.4255 15.616 32.8975 15.616ZM49.485 16.384H74.317L60.205 36.864H73.421V42.656H47.501L61.613 22.144H49.485V16.384ZM78.8275 42.656V16.384H86.9235V42.656H78.8275ZM82.9875 9.6C81.6435 9.6 80.5022 9.13067 79.5635 8.192C78.6462 7.25333 78.1875 6.13333 78.1875 4.832C78.1875 3.53067 78.6568 2.4 79.5955 1.44C80.5342 0.48 81.6648 0 82.9875 0C83.8622 0 84.6622 0.224 85.3875 0.672001C86.1128 1.09867 86.6995 1.67467 87.1475 2.4C87.5955 3.12533 87.8195 3.936 87.8195 4.832C87.8195 6.13333 87.3395 7.25333 86.3795 8.192C85.4408 9.13067 84.3102 9.6 82.9875 9.6ZM102.573 7.488H91.981V0.416H121.133V7.488H110.573V42.656H102.573V7.488ZM127.49 31.328C127.554 32.5227 127.874 33.5893 128.45 34.528C129.026 35.4667 129.858 36.2027 130.946 36.736C132.055 37.2693 133.378 37.536 134.914 37.536C136.301 37.536 137.517 37.3653 138.562 37.024C139.629 36.6827 140.525 36.2667 141.25 35.776C141.997 35.264 142.551 34.7733 142.914 34.304L146.274 39.296C145.677 40.0427 144.877 40.736 143.874 41.376C142.893 41.9947 141.634 42.4853 140.098 42.848C138.583 43.232 136.685 43.424 134.402 43.424C131.522 43.424 128.994 42.8587 126.818 41.728C124.642 40.5973 122.946 38.9653 121.73 36.832C120.514 34.6987 119.906 32.16 119.906 29.216C119.906 26.656 120.45 24.352 121.538 22.304C122.626 20.2347 124.205 18.6027 126.274 17.408C128.365 16.2133 130.871 15.616 133.794 15.616C136.546 15.616 138.925 16.1493 140.93 17.216C142.957 18.2613 144.525 19.7973 145.634 21.824C146.743 23.8507 147.298 26.3253 147.298 29.248C147.298 29.4187 147.287 29.7707 147.266 30.304C147.266 30.816 147.245 31.1573 147.202 31.328H127.49ZM139.682 26.304C139.661 25.6213 139.447 24.8853 139.042 24.096C138.658 23.3067 138.05 22.6347 137.218 22.08C136.386 21.5253 135.277 21.248 133.89 21.248C132.503 21.248 131.362 21.5147 130.466 22.048C129.591 22.5813 128.93 23.2427 128.482 24.032C128.034 24.8 127.778 25.5573 127.714 26.304H139.682Z" fill="currentColor"/>
</svg>
